<?xml version="1.0" encoding="UTF-8"?>
<svg width="174px" height="152px" viewBox="0 0 174 152" version="1.1" xmlns="http://www.w3.org/2000/svg" xmlns:xlink="http://www.w3.org/1999/xlink">
    <!-- Generator: Sketch 48.2 (47327) - http://www.bohemiancoding.com/sketch -->
    <title>Artboard 2</title>
    <desc>Created with Sketch.</desc>
    <defs>
        <rect id="path-1" x="-11" y="-27" width="174" height="174" rx="52"></rect>
    </defs>
    <g id="Page-1" stroke="none" stroke-width="1" fill="none" fill-rule="evenodd">
        <g id="Artboard-2">
            <mask id="mask-2" fill="white">
                <use xlink:href="#path-1"></use>
            </mask>
            <g id="Rectangle-10"></g>
            <g id="Group-2" mask="url(#mask-2)">
                <g transform="translate(104.500000, 112.500000) rotate(-14.000000) translate(-104.500000, -112.500000) translate(-11.000000, 1.000000)">
                    <path d="M83.5823999,171.613283 L123.241817,64.5567198 C125.140922,59.4302804 124.004999,52.8831182 120.704663,49.9332237 C118.639698,48.0875245 116.107599,48.0285967 114.007964,49.777376 L83.8517484,74.8943884 C79.9513696,78.1430011 75.2629874,78.1430311 71.3625913,74.8944684 L41.2050229,49.7768266 C37.8492594,46.9818777 33.6702122,48.9417182 31.8708597,54.1542529 C30.7450448,57.4156203 30.7829918,61.3487128 31.9712194,64.5562122 L71.6308248,171.613283 C73.5299293,176.739722 77.7449089,178.504161 81.0452452,175.554266 C82.1000649,174.611451 82.9754276,173.251743 83.5823999,171.613283 Z" id="Triangle-Copy-9" fill="#4D00B0" transform="translate(77.607098, 112.743346) scale(-1, -1) rotate(-69.000000) translate(-77.607098, -112.743346) "></path>
                    <path d="M100.714493,141.518973 L140.37391,34.4624094 C142.273014,29.33597 141.137092,22.7888078 137.836755,19.8389133 C135.77179,17.9932141 133.239692,17.9342862 131.140056,19.6830656 L100.983841,44.8000779 C97.0834622,48.0486906 92.39508,48.0487207 88.4946839,44.800158 L58.3371155,19.6825162 C54.981352,16.8875672 50.8023049,18.8474077 49.0029523,24.0599425 C47.8771374,27.3213099 47.9150844,31.2544023 49.103312,34.4619017 L88.7629174,141.518973 C90.6620219,146.645412 94.8770015,148.40985 98.1773378,145.459956 C99.2321575,144.517141 100.10752,143.157433 100.714493,141.518973 Z" id="Triangle-Copy-8" fill="#89009D" transform="translate(94.739191, 82.649035) scale(-1, -1) rotate(-40.000000) translate(-94.739191, -82.649035) "></path>
                    <path d="M130.464112,212.218532 L170.123529,105.161969 C188.298964,58.112222 154.925678,2.81361638 152.826042,4.5623957 L122.669827,29.6794081 C118.769448,32.9280208 114.081066,32.9280508 110.18067,29.6794881 L88.0867349,90.3820755 C84.7309715,87.5871266 80.5519243,89.5469671 78.7525718,94.7595019 C77.6267568,98.0208693 77.6647039,101.953962 78.8529314,105.161461 L118.512537,212.218532 C120.411641,217.344971 124.626621,219.10941 127.926957,216.159515 C128.981777,215.2167 129.85714,213.856992 130.464112,212.218532 Z" id="Triangle-Copy-7" fill="#FF3A6D" transform="translate(126.728039, 111.055162) scale(-1, -1) rotate(-6.000000) translate(-126.728039, -111.055162) "></path>
                    <path d="M147.470628,184.837052 L186.491138,77.603011 C207.430918,5.62158081 162.328919,30.9333112 160.444516,25.1337155 C158.742702,19.8960722 146.188507,17.8655305 122.781929,19.0420903 C118.881551,22.290703 111.262403,44.0132893 107.362007,40.7647266 L105.093251,63.0005956 C101.737488,60.2056466 97.5584406,62.1654871 95.7590881,67.3780219 C94.6332731,70.6393893 94.6712202,74.5724817 95.8594477,77.7799811 L135.519053,184.837052 C137.418158,189.963491 141.633137,191.72793 144.933474,188.778035 C145.988293,187.83522 146.863656,186.475512 147.470628,184.837052 Z" id="Triangle-Copy-6" fill="#FF9139" transform="translate(143.482683, 104.462629) scale(-1, -1) rotate(32.000000) translate(-143.482683, -104.462629) "></path>
                    <path d="M147.305163,199.44871 L184.672923,92.2695633 C190.396016,79.2718722 186.65458,45.0053705 148.942635,52.5870581 C126.562388,57.0864294 96.5284042,79.2817155 95.5936224,81.9896802 C94.4678074,85.2510476 94.5057545,89.18414 95.693982,92.3916394 L135.353587,199.44871 C137.252692,204.57515 141.467672,206.339588 144.768008,203.389693 C145.822828,202.446878 146.69819,201.08717 147.305163,199.44871 Z" id="Triangle-Copy-5" fill="#FFB816" transform="translate(140.798599, 128.161457) scale(-1, -1) rotate(56.000000) translate(-140.798599, -128.161457) "></path>
                </g>
            </g>
        </g>
    </g>
</svg>