<?xml version="1.0" encoding="UTF-8"?>
<svg width="644px" height="541px" viewBox="0 0 644 541" version="1.1" xmlns="http://www.w3.org/2000/svg" xmlns:xlink="http://www.w3.org/1999/xlink">
    <!-- Generator: Sketch 48.2 (47327) - http://www.bohemiancoding.com/sketch -->
    <title>Group 6</title>
    <desc>Created with Sketch.</desc>
    <defs>
        <polygon id="path-1" points="147 425.857286 245.428091 389 524 434.28819 431.298367 496"></polygon>
        <filter x="-1.5%" y="-3.3%" width="102.9%" height="110.3%" filterUnits="objectBoundingBox" id="filter-2">
            <feMorphology radius="1.5" operator="dilate" in="SourceAlpha" result="shadowSpreadOuter1"></feMorphology>
            <feOffset dx="0" dy="2" in="shadowSpreadOuter1" result="shadowOffsetOuter1"></feOffset>
            <feColorMatrix values="0 0 0 0 0.458823529   0 0 0 0 0.364705882   0 0 0 0 0.937254902  0 0 0 1 0" type="matrix" in="shadowOffsetOuter1"></feColorMatrix>
        </filter>
        <linearGradient x1="50%" y1="103.846682%" x2="50%" y2="21.6505155%" id="linearGradient-3">
            <stop stop-color="#445A16" offset="0%"></stop>
            <stop stop-color="#88C14A" offset="100%"></stop>
        </linearGradient>
        <linearGradient x1="50%" y1="103.846682%" x2="50%" y2="21.6505155%" id="linearGradient-4">
            <stop stop-color="#77B100" offset="0%"></stop>
            <stop stop-color="#9EF440" offset="100%"></stop>
        </linearGradient>
        <linearGradient x1="50%" y1="0%" x2="50%" y2="100%" id="linearGradient-5">
            <stop stop-color="#E2E2E2" offset="0%"></stop>
            <stop stop-color="#C0C0C0" offset="100%"></stop>
        </linearGradient>
        <linearGradient x1="64.507638%" y1="18.4073702%" x2="3.7400004%" y2="18.4073702%" id="linearGradient-6">
            <stop stop-color="#FFB67B" offset="0%"></stop>
            <stop stop-color="#FF9139" offset="100%"></stop>
        </linearGradient>
        <linearGradient x1="19.1179627%" y1="16.7543691%" x2="145.104985%" y2="35.6255153%" id="linearGradient-7">
            <stop stop-color="#FFFFFF" stop-opacity="0" offset="0%"></stop>
            <stop stop-color="#000000" stop-opacity="0.5" offset="100%"></stop>
        </linearGradient>
        <rect id="path-8" x="8.44654088" y="0" width="70.5534591" height="168"></rect>
        <linearGradient x1="64.507638%" y1="18.4073702%" x2="3.7400004%" y2="18.4073702%" id="linearGradient-9">
            <stop stop-color="#FF6CA6" offset="0%"></stop>
            <stop stop-color="#FF3A6D" offset="100%"></stop>
        </linearGradient>
        <rect id="path-10" x="130" y="185" width="72" height="168"></rect>
        <rect id="path-11" x="144" y="167" width="72" height="168"></rect>
        <rect id="path-12" x="144" y="167" width="72" height="168"></rect>
        <rect id="path-13" x="158" y="157" width="72" height="168"></rect>
        <rect id="path-14" x="158" y="157" width="72" height="168"></rect>
        <rect id="path-15" x="8.44654088" y="0" width="70.5534591" height="168"></rect>
        <linearGradient x1="50%" y1="0%" x2="50%" y2="100%" id="linearGradient-16">
            <stop stop-color="#E3E3E3" offset="0%"></stop>
            <stop stop-color="#C2C2C2" offset="100%"></stop>
        </linearGradient>
        <linearGradient x1="-4.87706708%" y1="32.367053%" x2="52.7479557%" y2="100%" id="linearGradient-17">
            <stop stop-color="#C5B3FF" offset="0%"></stop>
            <stop stop-color="#755DEF" offset="100%"></stop>
        </linearGradient>
        <linearGradient x1="50%" y1="0%" x2="50%" y2="100%" id="linearGradient-18">
            <stop stop-color="#FBD249" offset="0%"></stop>
            <stop stop-color="#F5A623" offset="100%"></stop>
        </linearGradient>
        <path d="M491.521553,308.182383 L555.15668,318.326147 C555.642123,318.403528 555.999327,318.822265 555.999232,319.313836 C555.996153,335.20301 555.35245,347.857409 554.068123,357.277034 C552.793848,366.622938 550.327316,376.903586 546.668527,388.11898 L546.668486,388.118966 C546.507471,388.612529 545.995525,388.900777 545.490015,388.782495 L486.915366,375.076865 C486.400889,374.956485 486.068848,374.456631 486.15733,373.93572 C488.4242,360.590168 489.812591,349.973782 490.322504,342.086561 C490.829693,334.241479 490.843764,323.280593 490.364718,309.203905 L490.364741,309.203904 C490.345957,308.651951 490.778176,308.189278 491.330129,308.170495 C491.39417,308.168315 491.458273,308.172296 491.521553,308.182383 Z" id="path-19"></path>
        <filter x="-10.0%" y="-6.2%" width="120.0%" height="117.4%" filterUnits="objectBoundingBox" id="filter-20">
            <feOffset dx="0" dy="2" in="SourceAlpha" result="shadowOffsetOuter1"></feOffset>
            <feGaussianBlur stdDeviation="2" in="shadowOffsetOuter1" result="shadowBlurOuter1"></feGaussianBlur>
            <feColorMatrix values="0 0 0 0 0.460220026   0 0 0 0 0.460220026   0 0 0 0 0.460220026  0 0 0 0.5 0" type="matrix" in="shadowBlurOuter1"></feColorMatrix>
        </filter>
        <path d="M531.522105,321.19866 L595.157233,331.342424 C595.642675,331.419805 595.99988,331.838542 595.999784,332.330113 C595.996706,348.219287 595.353003,360.873686 594.068675,370.293311 C592.7944,379.639215 590.327868,389.919863 586.669079,401.135257 L586.669038,401.135243 C586.508023,401.628806 585.996077,401.917054 585.490567,401.798772 L526.915918,388.093142 C526.401441,387.972762 526.0694,387.472908 526.157882,386.951997 C528.424752,373.606445 529.813144,362.990059 530.323056,355.102838 C530.830245,347.257756 530.844316,336.29687 530.36527,322.220182 L530.365293,322.220181 C530.346509,321.668228 530.778728,321.205555 531.330681,321.186771 C531.394722,321.184592 531.458825,321.188573 531.522105,321.19866 Z" id="path-21"></path>
        <filter x="-5.7%" y="-2.5%" width="111.5%" height="109.9%" filterUnits="objectBoundingBox" id="filter-22">
            <feOffset dx="0" dy="2" in="SourceAlpha" result="shadowOffsetOuter1"></feOffset>
            <feGaussianBlur stdDeviation="1" in="shadowOffsetOuter1" result="shadowBlurOuter1"></feGaussianBlur>
            <feColorMatrix values="0 0 0 0 0.402582908   0 0 0 0 0.402582908   0 0 0 0 0.402582908  0 0 0 0.5 0" type="matrix" in="shadowBlurOuter1"></feColorMatrix>
        </filter>
        <linearGradient x1="33.2884654%" y1="116.940786%" x2="65.7112692%" y2="11.93602%" id="linearGradient-23">
            <stop stop-color="#F6AB28" offset="0%"></stop>
            <stop stop-color="#FACC44" offset="100%"></stop>
        </linearGradient>
        <linearGradient x1="50%" y1="0%" x2="50%" y2="100%" id="linearGradient-24">
            <stop stop-color="#F7F7F7" offset="0%"></stop>
            <stop stop-color="#EBEBEB" offset="100%"></stop>
        </linearGradient>
        <linearGradient x1="50%" y1="0%" x2="50%" y2="100%" id="linearGradient-25">
            <stop stop-color="#BE00CC" offset="0%"></stop>
            <stop stop-color="#89009D" offset="100%"></stop>
        </linearGradient>
        <linearGradient x1="100%" y1="42.7965149%" x2="22.3322611%" y2="69.7484889%" id="linearGradient-26">
            <stop stop-color="#FFDD31" offset="0%"></stop>
            <stop stop-color="#FFB816" offset="100%"></stop>
        </linearGradient>
        <radialGradient cx="50%" cy="50%" fx="50%" fy="50%" r="128.934344%" gradientTransform="translate(0.500000,0.500000),scale(0.666552,1.000000),rotate(90.000000),translate(-0.500000,-0.500000)" id="radialGradient-27">
            <stop stop-color="#FBEDD3" offset="0%"></stop>
            <stop stop-color="#C7B893" offset="100%"></stop>
        </radialGradient>
        <linearGradient x1="50%" y1="0%" x2="50%" y2="100%" id="linearGradient-28">
            <stop stop-color="#FCF53C" offset="0%"></stop>
            <stop stop-color="#F8B71C" offset="100%"></stop>
        </linearGradient>
        <linearGradient x1="50%" y1="0%" x2="50%" y2="100%" id="linearGradient-29">
            <stop stop-color="#EC51C8" offset="0%"></stop>
            <stop stop-color="#D772EB" offset="100%"></stop>
        </linearGradient>
        <linearGradient x1="50%" y1="0%" x2="50%" y2="100%" id="linearGradient-30">
            <stop stop-color="#519AEC" offset="0%"></stop>
            <stop stop-color="#4DCED6" offset="100%"></stop>
        </linearGradient>
    </defs>
    <g id="Desktop-HD-Copy-2" stroke="none" stroke-width="1" fill="none" fill-rule="evenodd" transform="translate(-796.000000, -211.000000)">
        <g id="Group-6" transform="translate(785.000000, 211.000000)">
            <g id="Line-26">
                <use fill="black" fill-opacity="1" filter="url(#filter-2)" xlink:href="#path-1"></use>
                <use fill="#A897F5" fill-rule="evenodd" xlink:href="#path-1"></use>
            </g>
            <path d="M16.5770874,264.173415 C14.6823844,265.177418 14.5791102,276.158722 15.8177344,278.590853 C17.0563587,281.022983 25.550902,286.587919 48.3815747,288.711989 C63.6020232,290.128036 87.1414983,290.376475 119,289.457307 L119,276.470073 C71.9210498,278.52045 42.7965878,277.384085 31.626614,273.060978 C14.8716533,266.576319 18.4717904,263.169411 16.5770874,264.173415 Z" id="Line-23-Copy" fill="#D19533" transform="translate(67.000000, 277.000000) scale(1, -1) translate(-67.000000, -277.000000) "></path>
            <g id="Group-7" transform="translate(0.000000, 82.000000)">
                <path d="M23.8718728,211.527324 L41.012548,289.62745 C47.0982071,293.715167 61.3977235,296.10986 83.9110972,296.81153 C106.424471,297.5132 119.040832,296.255641 121.76018,293.038852 L125,216.046599 L22.5,206.898876 L23.8718728,211.527324 Z" id="Line-22" fill="#FFDD6A"></path>
                <ellipse id="Oval" fill="#332110" cx="68.3333333" cy="203.144663" rx="45.8333333" ry="9.59410112"></ellipse>
                <path d="M32.9367588,192.602809 C26.3654172,187.235195 19.4756298,182.80697 19.4756298,171.041216 C19.4756298,159.275461 23.4233609,158.248675 28.5399764,149.859735 C33.5348332,141.670423 16.1410607,134.668043 16.1410607,121.342685 C16.1410607,117.309129 22.984174,112.638663 26.6193045,106.223932 C29.6481529,100.879077 26.6186272,93.1587371 26.6193045,93.0798983 C26.6819278,85.7907186 19.4756298,78.9635987 23.3472096,69.2262167 C27.2187894,59.4888346 40.6293392,56.7239357 39.5806854,47.4226468 C38.5320316,38.1213578 36.4565607,18.7958969 49.7285101,15.3728904 C63.0004594,11.9498839 77.4627446,17.0509204 75.0273492,31.7142338 C72.5919537,46.3775472 72.828885,55.3742831 76.5267628,58.7347105 C80.2246406,62.0951378 97.3363192,66.7820496 94.7069863,78.9635987 C92.0776534,91.1451478 81.7961141,95.9303061 83.9909054,106.223932 C86.1856966,116.517558 102.127675,117.689814 92.2094406,133.116258 C82.2912065,148.542702 84.862838,155.756352 87.8262693,162.927213 C90.7897006,170.098074 90.2902228,182.099193 82.658786,191.144961 C77.5711615,197.175474 67.3186981,199.871107 51.901396,199.231863 C43.6391989,198.390902 37.3176532,196.181217 32.9367588,192.602809 Z" id="Line-25-Copy" fill="url(#linearGradient-3)" transform="translate(55.786297, 106.836986) scale(-1, 1) rotate(10.000000) translate(-55.786297, -106.836986) "></path>
                <path d="M87.0653912,205.430586 C80.4940496,200.062973 73.6042623,195.634748 73.6042623,183.868994 C73.6042623,172.103239 77.5519933,171.076453 82.6686088,162.687513 C87.6634657,154.498201 70.2696932,147.495821 70.2696932,134.170463 C70.2696932,130.136906 77.1128065,125.466441 80.747937,119.05171 C83.7767853,113.706855 80.7472597,105.986515 80.747937,105.907676 C80.8105602,98.6184965 73.6042623,91.7913766 77.4758421,82.0539946 C81.3474219,72.3166125 94.7579717,69.5517136 93.7093178,60.2504247 C92.660664,50.9491357 90.5851932,31.6236748 103.857143,28.2006683 C117.129092,24.7776618 131.591377,29.8786983 129.155982,44.5420117 C126.720586,59.2053251 126.957517,68.202061 130.655395,71.5624883 C134.353273,74.9229157 151.464952,79.6098275 148.835619,91.7913766 C146.206286,103.972926 135.924747,108.758084 138.119538,119.05171 C140.314329,129.345336 156.256307,130.517592 146.338073,145.944036 C136.419839,161.370479 138.99147,168.58413 141.954902,175.754991 C144.918333,182.925852 144.418855,194.926971 136.787418,203.972739 C131.699794,210.003251 121.447331,212.698885 106.030028,212.059641 C97.7678313,211.21868 91.4462856,209.008995 87.0653912,205.430586 Z" id="Line-25-Copy-2" fill="url(#linearGradient-3)" transform="translate(109.914929, 119.664764) scale(-1, 1) rotate(-10.000000) translate(-109.914929, -119.664764) "></path>
                <path d="M15.2412572,194.58722 C13.3384348,195.608678 14.2983,206.165287 15.5422321,208.639699 C16.7861642,211.114112 25.3171094,216.775792 48.2456188,218.936788 C63.5312918,220.377452 87.1716411,220.630211 119.166667,219.695063 L119.166667,206.48205 C71.8859681,208.568072 42.6366985,207.411952 31.4188578,203.01369 C14.5920967,196.416297 17.1440796,193.565762 15.2412572,194.58722 Z" id="Line-23" fill="#FFC400"></path>
                <path d="M56.2487994,196.097681 C49.0195929,190.192709 41.4400607,185.32117 41.4400607,172.377531 C41.4400607,159.433893 45.7830039,158.304314 51.4118499,149.075547 C56.9067479,140.066394 37.7716639,132.362997 37.7716639,117.703621 C37.7716639,113.26626 45.2998495,108.128229 49.2988973,101.071312 C52.6309673,95.1913766 49.2981521,86.698144 49.2988973,86.6114126 C49.3677898,78.5925043 41.4400607,71.0819133 45.699229,60.3697102 C49.9583973,49.6575071 64.7114934,46.6158109 63.5578576,36.3833587 C62.4042217,26.1509065 60.120973,4.89075046 74.7215931,1.12506269 C89.3222133,-2.64062508 105.232335,2.9710823 102.553129,19.1023577 C99.8739237,35.233633 100.134574,45.1310429 104.202651,48.8278867 C108.270728,52.5247304 127.095477,57.6808546 124.202919,71.0819133 C121.31036,84.4829719 109.999524,89.7471781 112.414038,101.071312 C114.828553,112.395445 132.366501,113.685056 121.455341,130.65586 C110.54418,147.626664 113.373261,155.562482 116.633365,163.451226 C119.893469,171.339971 119.343988,184.542536 110.948559,194.493887 C105.351606,201.128121 94.0727561,204.093618 77.1120093,203.390378 C68.0226737,202.465228 61.0682704,200.034329 56.2487994,196.097681 Z" id="Line-25" fill="url(#linearGradient-4)"></path>
            </g>
            <polygon id="Line-21-Copy" fill="#D8D8D8" points="178 138 259.002121 143.018369 257 289 178 280.188905"></polygon>
            <path d="M86,258.083413 C86,258.083413 86,304.722275 86,398 L180,364.795708 L180,138 C117.333333,218.055609 86,258.083413 86,258.083413 Z" id="Line-20-Copy" fill="url(#linearGradient-5)"></path>
            <g id="Group-4" transform="translate(143.500000, 262.000000) rotate(7.000000) translate(-143.500000, -262.000000) translate(104.000000, 178.000000)">
                <rect id="Rectangle-Copy-13" fill="#FFCF84" x="0" y="0" width="8.44654088" height="168"></rect>
                <g id="Rectangle-Copy-12">
                    <use fill="url(#linearGradient-6)" xlink:href="#path-8"></use>
                    <use fill="url(#linearGradient-7)" xlink:href="#path-8"></use>
                </g>
            </g>
            <rect id="Rectangle-Copy-5" fill="#F7C2FF" x="136" y="167" width="8" height="168"></rect>
            <rect id="Rectangle-Copy-9" fill="#FFB9CB" x="122" y="185" width="8" height="168"></rect>
            <g id="Rectangle-Copy-8">
                <use fill="url(#linearGradient-9)" xlink:href="#path-10"></use>
                <use fill="url(#linearGradient-7)" xlink:href="#path-10"></use>
            </g>
            <g id="Rectangle-Copy-4">
                <use fill="#89009D" xlink:href="#path-11"></use>
                <use fill="url(#linearGradient-7)" xlink:href="#path-11"></use>
            </g>
            <rect id="Rectangle-Copy-7" fill="#F7C2FF" x="136" y="167" width="8" height="168"></rect>
            <g id="Rectangle-Copy-6">
                <use fill="#89009D" xlink:href="#path-12"></use>
                <use fill="url(#linearGradient-7)" xlink:href="#path-12"></use>
            </g>
            <rect id="Rectangle-Copy-3" fill="#FFCF84" x="149" y="157" width="8" height="168"></rect>
            <g id="Rectangle-Copy-2">
                <use fill="url(#linearGradient-6)" xlink:href="#path-13"></use>
                <use fill="url(#linearGradient-7)" xlink:href="#path-13"></use>
            </g>
            <rect id="Rectangle-Copy-11" fill="#FFCF84" x="150" y="157" width="8" height="168"></rect>
            <g id="Rectangle-Copy-10">
                <use fill="url(#linearGradient-6)" xlink:href="#path-14"></use>
                <use fill="url(#linearGradient-7)" xlink:href="#path-14"></use>
            </g>
            <g id="Group-5" transform="translate(201.500000, 247.000000) rotate(-2.000000) translate(-201.500000, -247.000000) translate(162.000000, 163.000000)">
                <rect id="Rectangle" fill="#FFB9CB" x="0" y="0" width="8.44654088" height="168"></rect>
                <g id="Rectangle-Copy">
                    <use fill="url(#linearGradient-9)" xlink:href="#path-15"></use>
                    <use fill="url(#linearGradient-7)" xlink:href="#path-15"></use>
                </g>
            </g>
            <path d="M165,262.97584 C165,262.97584 165,311.317227 165,408 L259,369.592542 L259,143 C196.333333,222.983894 165,262.97584 165,262.97584 Z" id="Line-20" fill="url(#linearGradient-16)"></path>
            <path d="M387.758555,325.1775 L387.758555,380.070319 C387.758555,386.635093 392.652945,392.169714 399.168425,392.972702 L457.826171,400.201867 C464.95196,401.080071 471.440479,396.015403 472.318684,388.889614 C472.383701,388.362064 472.416301,387.831024 472.416301,387.299484 L472.416301,333.791547 L614.699553,348.096515 C621.843242,348.814732 628.216575,343.605858 628.934792,336.46217 C628.978237,336.030049 629,335.596022 629,335.161723 L629,42.0472835 C629,34.8675817 623.179702,29.0472835 616,29.0472835 C615.585931,29.0472835 615.172098,29.0670665 614.759917,29.106565 L285.765522,60.6334325 C280.137969,61.1727096 275.835483,65.8899187 275.814896,71.5432142 L274.964506,305.065974 C274.943699,310.779826 279.301091,315.558228 284.99264,316.06302 L387.758555,325.1775 Z" id="Line-14" fill="url(#linearGradient-17)"></path>
            <polygon id="Line-16" fill="#FFFFFF" points="285 70.9574908 618 43 618 338 285 306.065056"></polygon>
            <path d="M332.510771,81.2288838 L424.510771,73.7023087 C427.813445,73.4321149 430.709828,75.8904263 430.980021,79.1931008 C430.993335,79.3558374 431,79.5190497 431,79.68233 L431,299.133018 C431,302.446727 428.313708,305.133018 425,305.133018 C424.812735,305.133018 424.625574,305.124251 424.439129,305.106746 L332.439129,296.468902 C329.356266,296.179454 327,293.591596 327,290.495175 L327,87.2089052 C327,84.0848877 329.397156,81.4836106 332.510771,81.2288838 Z" id="Line-16-Copy" fill="#F4F4F4"></path>
            <path d="M447.402068,85.2826165 L539.402068,76.0684549 C542.699281,75.7382261 545.639903,78.1434419 545.970132,81.4406548 C545.990032,81.6393443 546,81.8389034 546,82.038587 L546,119.387033 C546,122.550231 543.544271,125.170109 540.387683,125.374495 L448.387683,131.331419 C445.080899,131.545531 442.226649,129.038424 442.012538,125.73164 C442.004182,125.602582 442,125.473286 442,125.343957 L442,91.2527486 C442,88.17059 444.335252,85.5897702 447.402068,85.2826165 Z" id="Line-16-Copy-2" fill="#F4F4F4"></path>
            <path d="M447.564932,140.704705 L539.564932,134.016059 C542.869918,133.775778 545.743924,136.260212 545.984206,139.565197 C545.994732,139.709981 546,139.855099 546,140.000265 L546,174.476203 C546,177.718989 543.423439,180.374993 540.182147,180.473437 L448.182147,183.267646 C444.869966,183.368243 442.103362,180.76474 442.002765,177.452558 C442.000922,177.39186 442,177.331138 442,177.270411 L442,146.688911 C442,143.544006 444.428306,140.932746 447.564932,140.704705 Z" id="Line-16-Copy-3" fill="#F4F4F4"></path>
            <path d="M447.829907,193.332339 L539.829907,190.723198 C543.142284,190.629258 545.903649,193.238317 545.997589,196.550693 C545.999196,196.607377 546,196.66408 546,196.720786 L546,231.296738 C546,234.610447 543.313708,237.296738 540,237.296738 L448,237.296738 C444.686292,237.296738 442,234.610447 442,231.296738 L442,199.329927 C442,196.08246 444.583745,193.4244 447.829907,193.332339 Z" id="Line-16-Copy-4" fill="#F4F4F4"></path>
            <path d="M448,250.54421 L540,250.54421 C543.313708,250.54421 546,253.230502 546,256.54421 L546,294.547377 C546,297.861085 543.313708,300.547377 540,300.547377 C539.835387,300.547377 539.670844,300.540602 539.506788,300.527071 L447.506788,292.93881 C444.394873,292.682136 442,290.081599 442,286.959116 L442,256.54421 C442,253.230502 444.686292,250.54421 448,250.54421 Z" id="Line-16-Copy-5" fill="#F4F4F4"></path>
            <g id="Line-15" transform="translate(521.071154, 348.489439) rotate(-7.000000) translate(-521.071154, -348.489439) ">
                <use fill="black" fill-opacity="1" filter="url(#filter-20)" xlink:href="#path-19"></use>
                <use fill="url(#linearGradient-18)" fill-rule="evenodd" xlink:href="#path-19"></use>
            </g>
            <g id="Group-7-Copy" transform="translate(588.000000, 105.000000)">
                <path d="M18.8929181,227.863435 C16.5010897,229.14763 17.7076304,242.419581 19.2712405,245.530456 C20.8348505,248.64133 31.5581622,255.759292 60.3790661,258.476134 C79.5930021,260.287362 109.308682,260.605135 149.526104,259.429451 L149.526104,242.817822 C90.0947456,245.440405 53.3287101,243.986911 39.227998,238.457339 C18.0769299,230.162982 21.2847466,226.579241 18.8929181,227.863435 Z" id="Line-23-Copy-2" fill="#FFC400" transform="translate(83.534137, 243.866292) scale(1, -1) translate(-83.534137, -243.866292) "></path>
                <path d="M30.1233747,264.231102 L51.6357699,361.790519 C59.2735731,366.896723 77.2201735,369.888074 105.475571,370.764571 C133.730969,371.641068 149.565126,370.070178 152.978042,366.051899 L157.044177,269.876392 L28.4016064,258.449438 L30.1233747,264.231102 Z" id="Line-22" fill="#FFDD6A"></path>
                <ellipse id="Oval" fill="#332110" cx="86.0401606" cy="253.864045" rx="57.6385542" ry="12.088764"></ellipse>
                <path d="M41.1047811,240.887627 C32.8663599,234.186232 24.2287066,228.657651 24.2287066,213.968259 C24.2287066,199.278867 29.1779352,197.996938 35.5925817,187.523455 C41.8545807,177.299206 20.0481928,168.556825 20.0481928,151.920289 C20.0481928,146.884446 28.6273313,141.05343 33.1846558,133.044722 C36.9818908,126.37174 33.1838066,116.732996 33.1846558,116.634567 C33.2631659,107.534121 24.2287066,99.01055 29.0824651,86.8535551 C33.9362236,74.6965601 50.7488875,71.2446197 49.4342014,59.6320813 C48.1195152,48.0195428 45.5175194,23.8919559 62.1564214,19.6183768 C78.7953234,15.3447977 96.9265368,21.7133755 93.8733074,40.0203318 C90.820078,58.3272881 91.1171162,69.559596 95.7531064,73.7550458 C100.389097,77.9504957 121.841826,83.8020442 118.54546,99.01055 C115.249093,114.219056 102.359236,120.193264 105.110823,133.044722 C107.862409,145.896181 127.848698,147.359726 115.414313,166.619441 C102.979928,185.879156 106.203955,194.885305 109.919178,203.838032 C113.6344,212.790759 113.00821,227.774 103.440759,239.067524 C97.0624578,246.59654 84.2090534,249.962004 64.8805454,249.163916 C54.5223166,248.113987 46.5970619,245.355224 41.1047811,240.887627 Z" id="Line-25-Copy" fill="url(#linearGradient-3)" transform="translate(69.751004, 133.810112) scale(-1, 1) rotate(10.000000) translate(-69.751004, -133.810112) "></path>
                <path d="M18.8929181,242.863435 C16.5010897,244.14763 17.7076304,257.419581 19.2712405,260.530456 C20.8348505,263.64133 31.5581622,270.759292 60.3790661,273.476134 C79.5930021,275.287362 109.308682,275.605135 149.526104,274.429451 L149.526104,257.817822 C90.0947456,260.440405 53.3287101,258.986911 39.227998,253.457339 C18.0769299,245.162982 21.2847466,241.579241 18.8929181,242.863435 Z" id="Line-23" fill="#FFC400"></path>
                <path d="M70.7943996,245.041684 C61.7252132,237.662891 52.2165361,231.575464 52.2165361,215.401224 C52.2165361,199.226985 57.6648465,197.815475 64.7263482,186.2833 C71.6198092,175.025553 47.6144578,165.399465 47.6144578,147.081258 C47.6144578,141.536376 57.0587195,135.115944 62.0756062,126.297692 C66.2557557,118.950184 62.0746714,108.337126 62.0756062,108.228748 C62.1620333,98.2084007 52.2165361,88.8232418 57.5597493,75.4373809 C62.9029624,62.0515201 81.411021,58.2506471 79.9637614,45.464278 C78.5165018,32.677909 75.6521199,6.11143245 93.9688944,1.40586699 C112.285669,-3.29969846 132.24524,3.71263448 128.884122,23.8701134 C125.523004,44.0275924 125.849995,56.395296 130.95348,61.0148347 C136.056965,65.6343734 159.672996,72.0774141 156.044222,88.8232418 C152.415449,105.56907 138.225774,112.147169 141.254832,126.297692 C144.283889,140.448215 166.285602,142.0597 152.59733,163.266245 C138.909057,184.47279 142.458196,194.389308 146.548063,204.247004 C150.63793,214.104699 149.948594,230.602491 139.416358,243.037599 C132.394867,251.327671 118.245321,255.033327 96.96772,254.154565 C85.5649639,252.998507 76.8405238,249.96088 70.7943996,245.041684 Z" id="Line-25" fill="url(#linearGradient-4)"></path>
            </g>
            <g id="Line-15-Copy" transform="translate(561.071706, 361.505716) rotate(6.000000) translate(-561.071706, -361.505716) ">
                <use fill="black" fill-opacity="1" filter="url(#filter-22)" xlink:href="#path-21"></use>
                <use fill="url(#linearGradient-18)" fill-rule="evenodd" xlink:href="#path-21"></use>
            </g>
            <g id="Group-2" transform="translate(323.000000, 379.000000)">
                <polygon id="Line-13" fill="#E9B69B" points="131.758942 150.070216 131.758942 153.681011 138.751523 153.070216 137.62428 149"></polygon>
                <polygon id="Line-13-Copy" fill="#E9B69B" points="167 149.070216 167 152.681011 173.992581 152.070216 172.865338 148"></polygon>
                <path d="M126.698056,149.119825 L132.66861,153.119825 C133.376095,153.119825 133.794049,153.119825 133.922473,153.119825 C134.115108,153.119825 134.052985,155.5882 135.775217,158.239111 C137.497449,160.890023 139.109007,163.610185 138.884875,163.943669 C138.660743,164.277154 137.779876,165.000607 136.967398,164.584932 C136.154919,164.169257 123.325098,153.495135 123.4309,152.818374 C123.501434,152.367199 124.590486,151.13435 126.698056,149.119825 Z" id="Line-6-Copy" fill="#39326B" transform="translate(131.168030, 156.915053) scale(-1, 1) rotate(-31.000000) translate(-131.168030, -156.915053) "></path>
                <path d="M129.986792,69.75 C128.4829,77.1081695 127.30131,82.5952633 126.442021,86.2112815 C125.582732,89.8272997 124.110743,95.5068726 122.026053,103.25 L131.30777,151.094046 L138.867911,151.094046 L135.793255,104.225051 L147.876795,81.330192 L147.876795,106.325719 L165.866126,150.052138 L174.280784,149.078372 L161.896851,103.25 C166.09215,82.5719442 167.982246,69.8394105 167.56714,65.052399 C167.152033,60.2653875 154.62525,61.8312545 129.986792,69.75 Z" id="Line-12" fill="#1C1B43"></path>
                <path d="M162.798228,148.932851 L168.768782,152.932851 C169.476267,152.932851 169.894221,152.932851 170.022645,152.932851 C170.21528,152.932851 170.153157,155.401226 171.875389,158.052137 C173.597621,160.703049 175.209179,163.423211 174.985047,163.756695 C174.760915,164.09018 173.880048,164.813633 173.06757,164.397958 C172.255091,163.982283 159.42527,153.308161 159.531072,152.6314 C159.601606,152.180225 160.690658,150.947376 162.798228,148.932851 Z" id="Line-6-Copy" fill="#39326B" transform="translate(167.268201, 156.728079) scale(-1, 1) rotate(-26.000000) translate(-167.268201, -156.728079) "></path>
                <path d="M88.6904579,31.25 C88.6095736,33.6724032 88.6853288,35.4382643 88.9177235,36.5475835 C89.2663157,38.2115623 89.845213,40.3110104 91.284001,40.755633 C92.243193,41.0520481 96.0463563,39.649365 102.693491,36.5475835 C116.927311,48.3729753 124.982091,57.1260516 126.857831,62.8068125 C129.67144,71.3279538 129.624454,70.4302111 132.807025,70.4302111 C134.928739,70.4302111 138.37777,70.328263 143.154118,70.1243668 C158.88169,69.1624409 166.865786,67.0834838 167.106406,63.8874955 C167.347026,60.6915071 161.79208,52.1874165 150.441567,38.3752235 C133.944431,21.0962282 122.668613,12.661982 116.614112,13.0724851 C111.508247,13.4186694 110.399246,15.0094277 109.267584,16.7327544 C108.322977,18.1712281 103.06789,21.0643062 99.980429,24.2589259 C95.7582383,28.6276598 91.9949146,30.9580178 88.6904579,31.25 Z" id="Line-8" fill="#F1F2F7"></path>
                <path d="M87.6953655,15.75 L92.6385285,20.9651156 C95.4772667,22.9871994 97.2997969,23.4991208 98.1061191,22.5008799 C98.6018131,21.8872021 99.9340571,20.7258393 100.801295,21.3013491 C101.1636,21.5417791 101.563083,22.5166773 101.999744,24.2260438 C103.030546,25.2077115 104.656123,24.6326568 106.876475,22.5008799 C110.207003,19.3032145 109.970303,17.3205593 108.567723,16.9877239 C107.165142,16.6548886 105.66272,15.958456 104.513925,14.1447626 C103.748061,12.9356336 103.205253,10.4122729 102.8855,6.57468045 L88.1771795,8.34276777 L87.6953655,15.75 Z" id="Line-10" fill="#E9B69B"></path>
                <g id="Group-3" transform="translate(0.000000, 18.388060)">
                    <polygon id="Line-19" fill="#FBCD45" points="0.174601142 24.6267227 0.174601142 44.9299281 71.1124027 59.888014 72.137039 35.3553663"></polygon>
                    <polygon id="Line-18" fill="#C68E29" points="71.0336449 36.824437 71.0336449 59.8930938 113.879655 31.3667511 113.879655 9.52835821"></polygon>
                    <polygon id="Line-17" fill="url(#linearGradient-23)" points="0.16635514 24.6548372 71.0736112 36.8070076 113.680552 9.73686809 44.8509466 0"></polygon>
                </g>
                <path d="M114.065314,26.25 C112.804144,28.4643716 111.691383,30.5406661 110.72703,32.4788836 C109.762678,34.4171011 109.216952,35.6741399 109.089852,36.25 C90.256592,44.8466249 80.3420759,49.3276642 79.3463037,49.693118 C78.3505315,50.0585719 76.7753804,49.50231 74.6208503,48.0243324 C73.608963,47.5905618 73.1112226,47.7210627 73.1276291,48.4158351 C73.1440357,49.1106075 73.7727986,50.1270849 75.0139179,51.4652675 C71.9199157,51.6474666 70.1494308,51.7385661 69.7024632,51.7385661 C69.0320119,51.7385661 69.7429293,54.5950982 73.4047833,56.9269796 C75.8460193,58.4815672 78.1784895,57.9486113 80.4021938,55.3281117 C97.0573421,49.7812415 106.83359,46.3301586 109.730938,44.9748629 C114.076959,42.9419194 123.357226,29.4768181 122.360873,28.8359162 C121.364521,28.1950142 119.683722,28.3587424 117.368734,27.6178115 C115.825408,27.1238576 114.724268,26.6679204 114.065314,26.25 Z" id="Line-11" fill="#E9B69B"></path>
                <path d="M82.0346149,12.1751789 C82.4840524,9.29964817 85.7599524,7.92862111 86.5188026,6.62565555 C87.2776529,5.32268999 85.8318624,1.29232396 90.6068861,0.359708559 C91.5423908,0.176994048 93.2433108,0.0756398296 94.8481778,0.359708559 C95.7040383,0.511199755 96.4235707,1.51774951 97.3156895,1.51774951 C97.8865895,1.51774951 99.297205,1.72479607 99.8728889,1.7897456 C105.648261,2.44133183 105.900186,14.6144449 104.670684,14.0183288 C101.771712,12.6127814 100.974452,13.1286707 100.554236,11.8401519 C100.13402,10.5516332 100.677482,7.92140079 98.547348,8.67114649 C97.1272586,9.17097696 96.8229062,10.1080754 97.6342907,11.4824419 C98.1472487,12.3853485 98.2796164,12.9229172 98.0313937,13.095148 C97.6590597,13.3534941 96.5662275,13.9759737 95.783607,13.5355608 C95.0009865,13.095148 93.6205143,9.67421992 92.6601163,9.58710088 C92.019851,9.52902151 91.3354409,10.3917142 90.6068861,12.1751789 C89.2597721,14.3411109 88.2504353,15.5075827 87.5788758,15.6745943 C86.5715366,15.9251118 81.5851774,15.0507096 82.0346149,12.1751789 Z" id="Line-9" fill="#323163"></path>
            </g>
            <polygon id="Line-21" fill="url(#linearGradient-24)" points="86 258 165 264.148536 165 408.000549 86 400.188905"></polygon>
            <g id="Group" transform="translate(119.000000, 0.000000)">
                <polygon id="Line-5" fill="#F3B8A8" points="52.2945113 145.650797 53.9603961 143.872449 56.5607477 145.90638 55.3573647 147.634719 54.6505068 148.862245 51.5700935 146.787218"></polygon>
                <path d="M51.3580484,145.535714 L55.5297942,148.30952 C56.0241281,148.30952 56.3161611,148.30952 56.4058932,148.30952 C56.5404913,148.30952 56.4970843,150.021218 57.7004424,151.859497 C58.9038005,153.697775 60.0298285,155.584075 59.8732229,155.815331 C59.7166174,156.046586 59.1011381,156.548265 58.5334429,156.260015 C57.9657478,155.971764 49.0012954,148.56978 49.075221,148.100478 C49.1245048,147.787611 49.8854472,146.932689 51.3580484,145.535714 Z" id="Line-6" fill="#39326B"></path>
                <polygon id="Line-5-Copy" fill="#F3B8A8" transform="translate(86.504673, 151.357143) rotate(-17.000000) translate(-86.504673, -151.357143) " points="84.7337636 150.640593 86.3996484 148.862245 89 150.896176 87.796617 152.624515 87.0897592 153.852041 84.0093458 151.777014"></polygon>
                <path d="M84.6290765,150.52551 L88.8008223,153.299316 C89.2951562,153.299316 89.5871891,153.299316 89.6769212,153.299316 C89.8115193,153.299316 89.7681123,155.011014 90.9714704,156.849293 C92.1748285,158.687571 93.3008565,160.573871 93.144251,160.805127 C92.9876454,161.036382 92.3721661,161.538061 91.804471,161.249811 C91.2367758,160.96156 82.2723235,153.559575 82.3462491,153.090274 C82.3955328,152.777407 83.1564753,151.922485 84.6290765,150.52551 Z" id="Line-6-Copy" fill="#39326B" transform="translate(87.752336, 155.931122) rotate(-17.000000) translate(-87.752336, -155.931122) "></path>
                <path d="M64.8473114,90.6479592 C64.2484596,96.1559154 63.8976236,100.286079 63.7948033,103.038451 C63.691983,105.790823 63.691983,111.256703 63.7948033,119.436092 L52.4018692,144.061877 L56.2451047,147.87636 C62.4478762,137.107024 66.5311078,129.534265 68.4947994,125.158085 C74.8548959,110.984309 76.756039,102.464974 77.2493209,103.038451 C78.3319224,104.297056 82.7647683,118.073453 84.2705158,120.620584 C85.2743474,122.318671 85.0450221,132.315098 83.5825399,150.609866 L88.800563,151.357143 C90.5885801,134.198947 91.4868156,122.363379 91.4952696,115.850439 C91.5081321,105.941133 89.3616508,92.7324414 87.996758,92.7324414 C84.9114005,92.7324414 81.8337063,93.0088643 77.2493209,93.213593 C74.7069301,93.3271307 70.572927,92.4719194 64.8473114,90.6479592 Z" id="Line" fill="url(#linearGradient-25)"></path>
                <path d="M65.9221755,45.5045845 C64.1820322,42.1459542 66.1197678,32.6593697 71.7353824,17.0448311 L76.1598181,17.3904358 C72.7927394,31.7996039 71.2104163,39.8818227 71.412849,41.637092 C71.7164981,44.2699961 75.3966237,48.3167684 76.4502645,48.5941174 C77.1526917,48.7790167 77.9459131,48.7790167 78.8299288,48.5941174 L87.1366493,47.6443053 C88.0461684,47.8322489 88.8179985,47.8322489 89.4521396,47.6443053 C90.0862806,47.4563617 93.2530658,45.1282967 98.9524951,40.6601103 C98.769329,35.8973274 98.6436748,32.2852216 98.5755327,29.823793 C98.5073905,27.3623643 98.4246775,22.9653177 98.3273935,16.6326531 L103.102171,16.6326531 C103.761506,22.7124323 104.181806,26.6140641 104.36307,28.3375486 C104.945135,33.8718995 104.782977,34.4848983 104.782977,41.637092 C104.782977,46.5189592 100.161008,52.6452821 90.9170689,60.0160608 C90.8022434,68.0775652 90.6310041,74.0916905 90.4033511,78.0584368 C90.1756981,82.0251831 89.7151407,87.0198175 89.0216789,93.0423402 C83.5757065,93.767671 79.6420102,94.0697022 77.22059,93.9484337 C74.1806615,93.7961894 69.7893745,92.8370261 64.046729,91.0709439 C65.5856573,87.1668975 66.5642447,84.0404592 66.982491,81.6916289 C68.1819831,74.9553995 68.2910637,67.2676651 69.0805859,63.1961087 C70.2830515,56.995009 70.9592561,54.1462625 71.1092,54.6498692 C69.391327,51.911643 67.6623188,48.8632148 65.9221755,45.5045845 Z" id="Line-2" fill="url(#linearGradient-26)"></path>
                <path d="M78.7316294,34.0969388 C74.9364799,40.71117 74.694694,45.8179959 78.0062718,49.4174166 C82.9736386,54.8165476 86.0747756,48.3684518 86.222932,47.9303974 C86.303196,47.6930808 85.8373567,47.6698514 85.4123338,47.3247291 C85.052822,47.0328024 84.7190776,46.4224244 84.8050812,46.1637907 C84.9927602,45.5993944 86.8977623,46.7427176 88.1620898,43.7072522 C89.0049748,41.6836086 89.2119428,38.7418295 88.7829938,34.881915 L78.7316294,34.0969388 Z" id="Line-4" fill="#F3B8A8"></path>
                <path d="M163.674498,0.831632653 L173.841121,4.83818217 L163.629382,9.14795918 C162.113651,7.27538446 161.358697,5.80245458 161.364519,4.72916954 C161.370342,3.6558845 162.140335,2.35670553 163.674498,0.831632653 Z" id="Rectangle-11-Copy" fill="url(#radialGradient-27)" transform="translate(167.602804, 4.989796) rotate(-2.000000) translate(-167.602804, -4.989796) "></path>
                <path d="M99.1946794,16.5596947 L99.1946794,18.2959184 L102.31926,18.2959184 L102.31926,16.0966105 C103.529187,14.3291851 104.074783,12.7838708 103.956046,11.4606675 C103.777941,9.4758625 103.788755,8.56551064 103.379987,8.32828889 C102.971219,8.09106714 99.5017995,11.4606675 98.7389004,11.4606675 C97.9760013,11.4606675 97.6689182,9.60415979 97.1880668,9.16291033 C96.7072154,8.72166086 96.4859813,10.365215 96.4859813,10.8846096 C96.4859813,11.4040042 97.6053169,15.2063373 98.3730056,15.883016 C98.8847981,16.3341351 99.1586894,16.5596947 99.1946794,16.5596947 Z" id="Line-7-Copy-2" fill="#F3B8A8"></path>
                <path d="M10.8130841,3.32653061 L163.859813,3.32653061 C163.273261,5.08945945 162.979986,6.40567456 162.979986,7.27517594 C162.979986,8.14467733 163.273261,9.60057106 163.859813,11.6428571 L10.8130841,11.6428571 L10.8130841,3.32653061 Z" id="Rectangle-11" fill="url(#linearGradient-28)" transform="translate(87.336449, 7.484694) rotate(-2.000000) translate(-87.336449, -7.484694) "></path>
                <rect id="Rectangle-11-Copy-2" fill="url(#linearGradient-29)" transform="translate(6.238318, 9.979592) rotate(-3.000000) translate(-6.238318, -9.979592) " x="0.831775701" y="5.82142857" width="10.8130841" height="8.31632653" rx="2"></rect>
                <rect id="Rectangle-11-Copy" fill="url(#linearGradient-30)" transform="translate(11.246422, 9.895104) rotate(-2.000000) translate(-11.246422, -9.895104) " x="5.83987965" y="4.98949133" width="10.8130841" height="9.81122449"></rect>
                <path d="M99.1896419,16.5709057 L99.1896419,18.2959184 L102.308411,18.2959184 L102.308411,16.1108117 C101.28755,15.9053929 100.717861,15.1453539 100.599345,13.8306947 C100.421571,11.8587059 100.645914,12.6922792 100.237906,12.4565892 C99.8298985,12.2208992 99.4961909,11.5048035 98.7347106,11.5048035 C97.9732302,11.5048035 97.6667182,9.66028357 97.1867611,9.22188331 C96.706804,8.78348305 96.4859813,10.4164246 96.4859813,10.9324653 C96.4859813,11.4485061 97.6032352,15.2262871 98.3694962,15.8985964 C98.8803369,16.3468026 99.1537188,16.5709057 99.1896419,16.5709057 Z" id="Line-7" fill="#F3B8A8"></path>
                <path d="M73.3600497,16.5599681 L73.3600497,18.2959184 L76.5170597,18.2959184 L76.5170597,16.0969568 C77.7395452,14.3298097 78.2908034,12.7847387 78.1708342,11.4617437 C77.9908805,9.47725123 78.001807,8.56704272 77.5887965,8.32985832 C77.1757859,8.09267392 73.5915776,11.0465828 72.8995403,11.4617437 C72.207503,11.8769045 71.71579,12.1581956 71.1876724,12.1581956 C70.8355939,12.1581956 70.3960895,12.1524956 69.8691589,12.1410957 C71.1258472,14.1849144 72.0127435,15.4323478 72.5298479,15.8833959 C73.0469522,16.334444 73.3236862,16.5599681 73.3600497,16.5599681 Z" id="Line-7-Copy" fill="#F3B8A8" transform="translate(74.028037, 13.306122) scale(-1, 1) translate(-74.028037, -13.306122) "></path>
                <path d="M88.4037084,37.2711134 C89.6683992,33.2734201 88.9213526,30.5199078 86.1625685,29.0105766 C84.6670977,28.1924043 79.0951748,27.5475126 76.7662023,30.0016746 C73.2280599,33.7300031 74.6220182,37.6300309 72.7460867,41.184447 C70.8701551,44.7388631 68.5719232,44.9092714 64.5286729,47.3753977 C60.4854225,49.841524 60.0587156,56.6860756 66.4024011,55.6044251 C72.7460867,54.5227746 73.2390764,49.0276581 75.4783699,48.682784 C77.7176633,48.3379099 79.7032094,50.5039773 81.3955321,47.6387561 C83.0878548,44.7735349 76.9297978,40.768385 78.1307832,38.8033405 C78.9314402,37.4933108 79.7497848,37.7369972 80.5858171,39.5343998 C80.5858171,37.0383967 80.8557221,35.779883 81.3955321,35.7588586 C82.2052471,35.7273219 84.6720319,35.6804781 85.6655394,35.3818946 C86.6590468,35.0833111 87.4650793,35.0252173 87.9343938,35.6804781 C88.2472702,36.1173186 88.4037084,36.6475304 88.4037084,37.2711134 Z" id="Line-3" fill="#393667"></path>
                <path d="M171.197372,4 L176.82243,4.27101426 L176.82243,4.99838196 L171.413035,5.66326531 C171.172308,5.17972092 171.037019,4.8213529 171.007167,4.58816125 C170.977315,4.35496961 171.040717,4.15891586 171.197372,4 Z" id="Rectangle-2" fill="#171717"></path>
                <path d="M65.9221755,45.5045845 C64.1820322,42.1459542 66.1197678,32.6593697 71.7353824,17.0448311 L76.1598181,17.3904358 C72.7927394,31.7996039 71.2104163,39.8818227 71.412849,41.637092 C71.7164981,44.2699961 75.3966237,48.3167684 76.4502645,48.5941174 C77.5039053,48.8714663 69.5855925,62.3847772 73.7406278,62.0154753 C76.5106514,61.769274 80.5181694,62.6683552 85.763182,64.712719 C89.5746096,54.7191088 91.7973939,49.6283319 92.4315349,49.4403883 C93.0656759,49.2524448 95.2393293,46.3256854 98.9524951,40.6601103 C98.769329,35.8973274 98.6436748,32.2852216 98.5755327,29.823793 C98.5073905,27.3623643 98.4246775,22.9653177 98.3273935,16.6326531 L103.102171,16.6326531 C103.761506,22.7124323 104.181806,26.6140641 104.36307,28.3375486 C104.945135,33.8718995 104.782977,34.4848983 104.782977,41.637092 C104.782977,46.5189592 100.161008,52.6452821 90.9170689,60.0160608 C90.8022434,68.0775652 90.6310041,74.0916905 90.4033511,78.0584368 C90.1756981,82.0251831 89.7151407,87.0198175 89.0216789,93.0423402 C83.5757065,93.767671 79.6420102,94.0697022 77.22059,93.9484337 C74.1806615,93.7961894 69.7893745,92.8370261 64.046729,91.0709439 C65.5856573,87.1668975 66.5642447,84.0404592 66.982491,81.6916289 C68.1819831,74.9553995 68.2910637,67.2676651 69.0805859,63.1961087 C70.2830515,56.995009 70.9592561,54.1462625 71.1092,54.6498692 C69.391327,51.911643 67.6623188,48.8632148 65.9221755,45.5045845 Z" id="Line-2-Copy" fill="url(#linearGradient-26)"></path>
            </g>
        </g>
    </g>
</svg>