<?xml version="1.0" encoding="UTF-8"?>
<svg width="477px" height="376px" viewBox="0 0 477 376" version="1.1" xmlns="http://www.w3.org/2000/svg" xmlns:xlink="http://www.w3.org/1999/xlink">
    <!-- Generator: Sketch 48.2 (47327) - http://www.bohemiancoding.com/sketch -->
    <title>Group 12</title>
    <desc>Created with Sketch.</desc>
    <defs>
        <rect id="path-1" x="0" y="0" width="449" height="348" rx="21"></rect>
        <filter x="-6.0%" y="-4.3%" width="112.0%" height="115.5%" filterUnits="objectBoundingBox" id="filter-2">
            <feMorphology radius="5.5" operator="erode" in="SourceAlpha" result="shadowSpreadOuter1"></feMorphology>
            <feOffset dx="0" dy="12" in="shadowSpreadOuter1" result="shadowOffsetOuter1"></feOffset>
            <feGaussianBlur stdDeviation="12.5" in="shadowOffsetOuter1" result="shadowBlurOuter1"></feGaussianBlur>
            <feColorMatrix values="0 0 0 0 0.717421011   0 0 0 0 0.82813245   0 0 0 0 0.911166029  0 0 0 1 0" type="matrix" in="shadowBlurOuter1"></feColorMatrix>
        </filter>
        <rect id="path-3" x="0" y="0" width="122" height="122" rx="52"></rect>
    </defs>
    <g id="Desktop-HD-Copy-2" stroke="none" stroke-width="1" fill="none" fill-rule="evenodd" transform="translate(-825.000000, -2385.000000)">
        <g id="Group-12" transform="translate(839.000000, 2387.000000)">
            <g id="Rectangle-12-Copy-4">
                <use fill="black" fill-opacity="1" filter="url(#filter-2)" xlink:href="#path-1"></use>
                <use fill="#FFFFFF" fill-rule="evenodd" xlink:href="#path-1"></use>
            </g>
            <g id="logo" transform="translate(38.000000, 171.000000)">
                <mask id="mask-4" fill="white">
                    <use xlink:href="#path-3"></use>
                </mask>
                <g id="path-1"></g>
                <g id="Group-2" mask="url(#mask-4)">
                    <g transform="translate(-17.000000, 1.000000)" id="Group">
                        <g transform="translate(97.741191, 96.039784) rotate(-14.000000) translate(-97.741191, -96.039784) translate(16.741191, 17.539784)">
                            <path d="M58.7173848,121.066436 L86.5784807,46.166057 C87.9126189,42.5794272 87.1146229,37.9988119 84.7961072,35.9349663 C83.3454508,34.6436529 81.5666286,34.6024251 80.0916162,35.82593 L58.9066045,53.3986383 C56.1665535,55.6714772 52.872923,55.6714982 50.1328597,53.3986943 L28.9468977,35.8255456 C26.5894438,33.8701052 23.6536257,35.2412756 22.3895644,38.8881406 C21.5986694,41.1699031 21.6253275,43.9216272 22.460068,46.1657018 L50.3212962,121.066436 C51.6554341,124.653066 54.616495,125.887527 56.9350109,123.823681 C57.6760312,123.164056 58.2909813,122.212758 58.7173848,121.066436 Z" id="Triangle-Copy-9" fill="#4D00B0" fill-rule="nonzero" transform="translate(54.519682, 79.879044) rotate(111.000000) translate(-54.519682, -79.879044) "></path>
                            <path d="M70.7528339,100.011442 L98.6139297,25.1110624 C99.9480673,21.5244326 99.1500719,16.9438173 96.8315556,14.8799717 C95.3808992,13.5886583 93.6020777,13.5474304 92.1270645,14.7709354 L70.9420533,32.3436436 C68.2020022,34.6164826 64.9083717,34.6165036 62.1683085,32.3436997 L40.9823465,14.770551 C38.6248926,12.8151105 35.6890745,14.186281 34.4250132,17.833146 C33.6341181,20.1149085 33.6607763,22.8666325 34.4955168,25.1107072 L62.356745,100.011442 C63.6908829,103.598072 66.6519438,104.832532 68.9704596,102.768687 C69.7114799,102.109061 70.3264299,101.157764 70.7528339,100.011442 Z" id="Triangle-Copy-8" fill="#89009D" fill-rule="nonzero" transform="translate(66.555131, 58.824050) rotate(140.000000) translate(-66.555131, -58.824050) "></path>
                            <path d="M91.6522072,149.475237 L119.513303,74.5748576 C132.281709,41.657269 108.836676,2.96850096 107.361663,4.19200591 L86.1766521,21.7647142 C83.4366009,24.0375531 80.1429706,24.0375741 77.4029074,21.7647702 L61.88172,64.234346 C59.5242662,62.2789055 56.5884481,63.650076 55.3243868,67.296941 C54.5334917,69.5787036 54.5601499,72.3304278 55.3948903,74.5745021 L83.2561186,149.475237 C84.5902562,153.061866 87.5513174,154.296327 89.8698331,152.232481 C90.6108536,151.572856 91.2258039,150.621559 91.6522072,149.475237 Z" id="Triangle-Copy-7" fill="#FF3A6D" fill-rule="nonzero" transform="translate(89.027583, 78.697934) rotate(174.000000) translate(-89.027583, -78.697934) "></path>
                            <path d="M103.599437,130.31823 L131.011695,55.2936816 C145.722078,4.93304727 114.03752,22.6419868 112.71371,18.5843943 C111.51817,14.9199625 102.698736,13.4993271 86.2554048,14.322488 C83.5153543,16.5953269 78.1628345,31.7931803 75.4227714,29.5203764 L73.82895,45.0773397 C71.4714964,43.1218992 68.5356781,44.4930696 67.2716169,48.1399346 C66.4807218,50.4216972 66.5073799,53.1734212 67.3421204,55.4174958 L95.2033485,130.31823 C96.5374868,133.90486 99.4985473,135.139321 101.817064,133.075475 C102.558083,132.41585 103.173034,131.464552 103.599437,130.31823 Z" id="Triangle-Copy-6" fill="#FF9139" fill-rule="nonzero" transform="translate(100.797870, 74.085575) rotate(-148.000000) translate(-100.797870, -74.085575) "></path>
                            <path d="M103.483197,140.541039 L129.734383,65.5548962 C133.754907,56.4612735 131.126515,32.4872741 104.633535,37.7916782 C88.9112114,40.93959 67.8120687,56.4681602 67.1553761,58.3627435 C66.364481,60.6445061 66.3911391,63.3962301 67.2258796,65.6403047 L95.0871075,140.541039 C96.4212458,144.127669 99.382307,145.36213 101.700823,143.298284 C102.441843,142.638658 103.056793,141.687361 103.483197,140.541039 Z" id="Triangle-Copy-5" fill="#FFB816" fill-rule="nonzero" transform="translate(98.912277, 90.666074) rotate(-124.000000) translate(-98.912277, -90.666074) "></path>
                        </g>
                    </g>
                </g>
            </g>
            <path d="M170.258552,129 L265.741448,129 C283.00507,129 297,142.99493 297,160.258552 L297,160.258552 C297,177.522174 283.00507,191.517104 265.741448,191.517104 L187.223332,191.517104 C184.50702,195.770375 182.200289,198.893923 180.303138,200.88775 C178.405988,202.881576 175.484827,205.252326 171.539655,208 C172.330634,204.351121 172.612798,201.616133 172.386147,199.795036 C172.159496,197.973939 171.19352,195.214629 169.488218,191.517104 L169.488218,191.517104 C152.65004,191.517104 139,177.867064 139,161.028886 L139,160.258552 C139,142.99493 152.99493,129 170.258552,129 Z" id="Rectangle-14" fill="#F0EDFE"></path>
            <text id=".-.-." font-family="Arial, Circular-Black, Circular" font-size="60" font-weight="700" letter-spacing="-1.70000005" fill="#7754F8">
                <tspan x="177" y="167">. . </tspan>
                <tspan x="238.96" y="167">.</tspan>
            </text>
            <path d="M132.258552,50 L344.741448,50 C362.00507,50 376,63.9949304 376,81.258552 L376,81.258552 C376,98.5221736 362.00507,112.517104 344.741448,112.517104 L149.2661,112.517104 C146.547379,116.770375 144.238602,119.893923 142.339769,121.88775 C140.440936,123.881576 137.517184,126.252326 133.568513,129 C134.360194,125.351121 134.642608,122.616133 134.415756,120.795036 C134.188904,118.973939 133.222071,116.214629 131.515257,112.517104 L131.515257,112.517104 C114.662146,112.517104 101,98.854958 101,82.0018467 L101,81.258552 C101,63.9949304 114.99493,50 132.258552,50 Z" id="Rectangle-14-Copy" fill="#E3EAF2" transform="translate(238.500000, 89.500000) scale(-1, 1) translate(-238.500000, -89.500000) "></path>
            <text id="Hey-Polya,-I-need-he" font-family="Helvetica, Circular-Book, Circular" font-size="18" font-weight="300" fill="#0A1032">
                <tspan x="141" y="87">Hey Polya, I need help…</tspan>
            </text>
        </g>
    </g>
</svg>